<svg xmlns="http://www.w3.org/2000/svg" width="144" height="144" viewBox="0 0 144 144">
<rect width="144" height="144" fill="#15102a"/>
<rect width="144" height="144" fill="#a78bfa" opacity="0.000"/>
<rect x="5" y="5" width="134" height="134" rx="20" fill="none" stroke="#a78bfa" stroke-width="5" stroke-linejoin="round" opacity="0.95"/>
<text x="128" y="19" font-family="ui-monospace,SFMono-Regular,Menlo,monospace" font-size="10" font-weight="700" fill="#a78bfa" opacity="0.8" text-anchor="end">5</text>

<defs><clipPath id="ct"><rect x="10" y="19" width="124" height="23"/></clipPath></defs>
<text clip-path="url(#ct)" x="72" y="35" font-family="-apple-system,Segoe UI,Roboto,sans-serif" font-size="19" font-weight="700" fill="#a78bfa" text-anchor="middle">publish</text>
<g transform="translate(0,12)"><g opacity="1.00">
<path d="M50 38 H86 a4 4 0 0 1 4 4 V82 a4 4 0 0 1 -4 4 H54 a4 4 0 0 1 -4 -4 V42 a4 4 0 0 1 4 -4 z" fill="none" stroke="#a78bfa" stroke-width="4.5" stroke-linejoin="round"/>
<path d="M82 38 V46 H90" fill="none" stroke="#a78bfa" stroke-width="4.5" stroke-linejoin="round"/>
</g>
<path d="M58 56 L62 60 L70 52" fill="none" stroke="#a78bfa" stroke-width="3.5" stroke-linecap="round" stroke-linejoin="round"/>
<line x1="58" y1="68" x2="80" y2="68" stroke="#a78bfa" stroke-width="3" stroke-linecap="round" opacity="0.7"/>
<line x1="58" y1="76" x2="76" y2="76" stroke="#a78bfa" stroke-width="3" stroke-linecap="round" opacity="0.5"/></g>
<defs><clipPath id="cb0"><rect x="10" y="118" width="124" height="20"/></clipPath></defs>
<text clip-path="url(#cb0)" x="72" y="132" font-family="-apple-system,Segoe UI,Roboto,sans-serif" font-size="17" font-weight="600" fill="#ddd6fe" text-anchor="middle">feat/plan</text>

</svg>